<?xml version="1.0" encoding="utf-8"?>
<!-- Generator: Adobe Illustrator 15.0.1, SVG Export Plug-In  -->
<!DOCTYPE svg PUBLIC "-//W3C//DTD SVG 1.1//EN" "http://www.w3.org/Graphics/SVG/1.1/DTD/svg11.dtd" [
	<!ENTITY ns_flows "http://ns.adobe.com/Flows/1.0/">
]>
<svg version="1.1"
	 xmlns="http://www.w3.org/2000/svg" xmlns:xlink="http://www.w3.org/1999/xlink" xmlns:a="http://ns.adobe.com/AdobeSVGViewerExtensions/3.0/"
	 x="0px" y="0px" width="252px" height="63px" viewBox="-3.3423 -3.0913 252 63" enable-background="new -3.3423 -3.0913 252 63"
	 xml:space="preserve">
<defs>
</defs>
<path fill="#808080" d="M77.5361,37.3213h8.8413v2.1533h-6.3477v6.291h6.0352v2.1533h-6.0352v9.1807h-2.4937V37.3213z"/>
<path fill="#808080" d="M96.228,37.123c4.3916,0,7.1973,3.7686,7.1973,9.8887c0,6.8291-2.749,10.2861-7.4238,10.2861
	c-4.3926,0-7.1973-3.7686-7.1973-9.8887C88.8042,40.5801,91.5522,37.123,96.228,37.123z M96.0015,55.2578
	c2.6064,0,4.8164-2.1533,4.8164-8.2461c0-3.9951-1.2461-7.8486-4.5898-7.8486c-2.6074,0-4.8174,2.1533-4.8174,8.2461
	C91.4106,51.4043,92.6577,55.2578,96.0015,55.2578z"/>
<path fill="#808080" d="M119.6821,49.8174c0,1.9551-0.1133,3.0322-0.793,4.4199c-0.8223,1.6436-2.5508,3.0605-5.4121,3.0605
	c-2.8623,0-4.5908-1.417-5.4121-3.0605c-0.6807-1.3877-0.7939-2.4648-0.7939-4.4199V37.3213h2.4941v12.8643
	c0,3.0889,1.3594,5.0723,3.7119,5.0723c2.3516,0,3.7119-1.9834,3.7119-5.0723V37.3213h2.4932V49.8174z"/>
<path fill="#808080" d="M125.0649,37.3213h3.0889l7.4521,16.3213h0.0566V37.3213h2.3799v19.7783h-3.0879l-7.4521-16.208h-0.0566
	v16.208h-2.3809V37.3213z"/>
<path fill="#808080" d="M143.1431,37.3213h4.3066c2.6357,0,4.1377,0.623,5.2705,1.417c1.7568,1.2188,3.6553,3.7119,3.6553,8.1602
	c0,5.7246-2.7197,10.2012-10.1436,10.2012h-3.0889V37.3213z M145.6362,54.9463h1.502c4.3643,0,6.6309-2.9756,6.6309-8.0479
	c0-4.1367-1.7568-7.4238-6.6309-7.4238h-1.502V54.9463z"/>
<path fill="#808080" d="M167.6011,37.3213l6.4609,19.7783h-2.6074l-1.5859-5.1572h-7.5381l-1.5869,5.1572h-2.4932l6.6309-19.7783
	H167.6011z M169.2163,49.7891l-3.0313-9.8604h-0.0576l-3.1162,9.8604H169.2163z"/>
<path fill="#808080" d="M179.0786,39.4746h-4.5342v-2.1533h11.5615v2.1533h-4.5342v17.625h-2.4932V39.4746z"/>
<path fill="#808080" d="M189.8169,37.3213h2.4941v19.7783h-2.4941V37.3213z"/>
<path fill="#808080" d="M204.2964,37.123c4.3916,0,7.1973,3.7686,7.1973,9.8887c0,6.8291-2.749,10.2861-7.4238,10.2861
	c-4.3926,0-7.1973-3.7686-7.1973-9.8887C196.8726,40.5801,199.6206,37.123,204.2964,37.123z M204.0698,55.2578
	c2.6064,0,4.8164-2.1533,4.8164-8.2461c0-3.9951-1.2461-7.8486-4.5898-7.8486c-2.6074,0-4.8174,2.1533-4.8174,8.2461
	C199.479,51.4043,200.7261,55.2578,204.0698,55.2578z"/>
<path fill="#808080" d="M216.0542,37.3213h3.0889l7.4521,16.3213h0.0566V37.3213h2.3799v19.7783h-3.0879l-7.4521-16.208h-0.0566
	v16.208h-2.3809V37.3213z"/>
<path fill="#808080" d="M242.5767,40.1836c-0.9355-0.5674-2.1533-0.9072-3.3721-0.9072c-1.8701,0-3.0889,1.2754-3.0889,2.9473
	c0,1.2744,0.5098,2.0684,3.3438,3.7119c3.0605,1.7568,4.0801,3.4854,4.0801,5.752c0,3.1455-1.9551,5.6104-5.752,5.6104
	c-1.5869,0-3.0889-0.3398-4.1367-0.8496v-2.5791c1.1328,0.6807,2.6064,1.2754,3.7686,1.2754c2.2383,0,3.5137-1.502,3.5137-3.1172
	c0-1.5303-0.3965-2.4082-3.0605-4.0234c-3.5703-2.1533-4.3633-3.3721-4.3633-5.9219c0-3.2588,2.4932-4.959,5.4971-4.959
	c1.3027,0,2.6914,0.2832,3.5703,0.6514V40.1836z"/>
<path d="M83.1743,8.6152c4.1084,0,7.877,3.0605,7.877,10.1729c0,7.1113-3.7686,10.1719-7.877,10.1719s-7.8774-3.0605-7.8774-10.1719
	C75.2969,11.6758,79.0659,8.6152,83.1743,8.6152z M83.1743,26.1836c2.2949,0,4.1367-1.9551,4.1367-7.3955
	s-1.8418-7.3965-4.1367-7.3965s-4.1367,1.9561-4.1367,7.3965S80.8794,26.1836,83.1743,26.1836z"/>
<path d="M94.2817,8.8984h5.667c4.0801,0,6.2061,2.2666,6.2061,6.0068s-2.126,6.0361-6.2061,6.0361h-2.04v7.7354h-3.627V8.8984z
	 M99.269,18.1641c2.2666,0,3.2588-1.1045,3.2588-3.2588c0-2.1533-0.9922-3.2295-3.2588-3.2295h-1.3604v6.4883H99.269z"/>
<path d="M109.1567,8.8984h10.3994v2.8906h-6.7725v5.2705h6.4043v2.8896h-6.4043v5.8369h7.0557v2.8906h-10.6826V8.8984z"/>
<path d="M123.2964,8.8984h4.3076l6.5732,15.5283h0.0566V8.8984h3.2871v19.7783h-4.335l-6.5459-15.4141h-0.0566v15.4141h-3.2871
	V8.8984z"/>
<path d="M148.7974,24.8516c0.708,0.4531,2.2666,1.2188,4.1934,1.2188c1.5869,0,3.0039-0.8789,3.0039-2.8623
	c0-1.417-0.8213-2.04-2.5781-3.0039l-1.8418-1.0195c-1.9561-1.0771-3.2305-2.6357-3.2305-5.1855c0-3.542,2.918-5.3838,6.2334-5.3838
	c2.0967,0,3.5703,0.5381,4.1367,0.708l-0.1699,3.0322c-0.8779-0.3398-2.04-0.8496-3.7119-0.8496
	c-1.8135,0-2.748,0.9629-2.748,2.3232c0,1.4736,0.9912,2.04,2.0967,2.6631l2.125,1.1904c2.3232,1.3037,3.4287,2.5498,3.4287,5.3271
	c0,4.0234-2.8623,5.9502-6.6309,5.9502c-1.9834,0-3.5137-0.2832-4.5049-0.8779L148.7974,24.8516z"/>
<path d="M169.3032,8.6152c4.1084,0,7.877,3.0605,7.877,10.1729c0,7.1113-3.7686,10.1719-7.877,10.1719s-7.877-3.0605-7.877-10.1719
	C161.4263,11.6758,165.1948,8.6152,169.3032,8.6152z M169.3032,26.1836c2.2949,0,4.1367-1.9551,4.1367-7.3955
	s-1.8418-7.3965-4.1367-7.3965s-4.1367,1.9561-4.1367,7.3965S167.0083,26.1836,169.3032,26.1836z"/>
<path d="M193.1606,28.252c-0.7363,0.3965-2.4932,0.708-4.2783,0.708c-6.0078,0-9.0957-4.3916-9.0957-10.1719
	c0-5.7813,3.0879-10.1729,8.9824-10.1729c2.0117,0,3.6553,0.5381,4.3916,0.8213l-0.1982,3.2588
	c-0.7363-0.3682-1.8984-1.0762-3.7402-1.0762c-3.0039,0-5.582,2.04-5.582,7.1689c0,5.1279,2.5781,7.168,5.582,7.168
	c1.7568,0,2.9189-0.4248,3.7402-1.0195L193.1606,28.252z"/>
<path d="M196.3628,8.8984h3.627v19.7783h-3.627V8.8984z"/>
<path d="M204.2114,8.8984h10.3994v2.8906h-6.7725v5.2705h6.4043v2.8896h-6.4043v5.8369h7.0557v2.8906h-10.6826V8.8984z"/>
<path d="M221.2974,11.7891h-4.4209V8.8984h12.4395v2.8906h-4.3916v16.8877h-3.627V11.7891z"/>
<path d="M235.9741,20.7432l-5.8369-11.8447h3.9102l3.8535,7.9053l3.627-7.9053h3.9111l-5.8379,11.9297v7.8486h-3.627V20.7432z"/>
<path d="M44.2324,56.8047h15.9648V38.582C54.5039,47.9238,50.958,50.957,44.2324,56.8047"/>
<path d="M0,0v30.0566c1.2578-1.9863,3.6123-4.3965,5.1992-6.3496C13.5117,13.4922,36.1318-3.5625,46.9727,2.9238
	c12.4072,7.4199,0.9531,27.8379-10.3896,38.4688c-18.0361,16.9043-26.8545,10.1387-22.709-0.668
	c3.2324-8.4316,14.2236-17.5957,18.1211-14.8535c3.9561,2.7832-1.7705,10.0781-5.79,13.3965
	c-3.1992,2.6426-5.2188,2.1152-3.8926-1.2012c1.3271-3.3184,4.2441-4.8047,3.8574-3.6445l-0.0605,0.0313
	c0.168-0.4316-1.9922,0.2949-3.2002,3.3086c-1.207,3.0156,0.9648,2.4336,2.4619,1.0195c3.5293-3.3359,8.458-9.041,5.4189-11.1797
	c-3.5439-2.4922-11.7734,6.1094-14.5313,12.5801c-3.3047,7.7676,3.7949,11.4824,16.0693,0.6094
	c8.6289-7.6465,16.3477-22.7285,9.1709-26.6699c-9.9199-5.4453-29.0781,13.5508-33.127,19.2148
	C4.6426,38.543,3.0781,40.8574,0,46.3594v10.4453h35.9785c8.6455-7.7422,16.751-13.6094,24.2188-28.2578V0H0z"/>
<path fill="#FFFFFF" d="M41.499,14.1211c7.1768,3.9414-0.542,19.0234-9.1709,26.6699c-12.2744,10.873-19.374,7.1582-16.0693-0.6094
	c2.7568-6.4707,10.9873-15.0723,14.5313-12.5801c3.0391,2.1387-1.8896,7.8438-5.4189,11.1797
	c-1.498,1.4141-3.668,1.9961-2.4619-1.0195c1.208-3.0137,3.3682-3.7402,3.2002-3.3086l0.0605-0.0313
	c0.3867-1.1602-2.5303,0.3262-3.8574,3.6445c-1.3262,3.3164,0.6934,3.8438,3.8926,1.2012c4.0195-3.3184,9.7461-10.6133,5.79-13.3984
	c-3.8975-2.7402-14.8887,6.4238-18.1211,14.8555c-4.1455,10.8066,4.6729,17.5723,22.709,0.668
	C47.9258,30.7617,59.3799,10.3438,46.9727,2.9258C36.1318-3.5625,13.5117,13.4922,5.1992,23.707
	C3.6123,25.6582,1.2578,28.0703,0,30.0566v16.3027c3.0791-5.502,4.6426-7.8164,8.3721-13.0234
	C12.4219,27.6719,31.5791,8.6758,41.499,14.1211"/>
<path fill="#FFFFFF" d="M35.9785,56.8047h8.2539c6.7256-5.8477,10.2715-8.8809,15.9648-18.2227V28.5469
	C52.7295,43.1953,44.624,49.0625,35.9785,56.8047"/>
</svg>
